<mxfile host="app.diagrams.net" modified="2020-07-14T15:54:47.577Z" agent="5.0 (X11; Linux x86_64) AppleWebKit/537.36 (KHTML, like Gecko) Chrome/81.0.4044.138 Safari/537.36" etag="E6b714hpLlCBP8wcEobp" version="13.4.2" type="github">
  <diagram name="Page-1" id="dd472eb7-4b8b-5cd9-a60b-b15522922e76">
    <mxGraphModel dx="1363" dy="1577" grid="1" gridSize="10" guides="1" tooltips="1" connect="1" arrows="1" fold="1" page="1" pageScale="1" pageWidth="1100" pageHeight="850" background="#ffffff" math="0" shadow="0">
      <root>
        <mxCell id="0" />
        <mxCell id="1" parent="0" />
        <mxCell id="374e34682ed331ee-1" value="&lt;font style=&quot;font-size: 24px&quot;&gt;&lt;font color=&quot;#000000&quot; style=&quot;font-size: 24px&quot;&gt;&lt;b&gt;O&lt;/b&gt;ne &lt;b&gt;W&lt;/b&gt;orld &lt;b&gt;N&lt;/b&gt;etwork&lt;/font&gt;&lt;br&gt;&lt;b&gt;&lt;font style=&quot;font-size: 40px&quot; color=&quot;#0000ff&quot;&gt;OWN&lt;/font&gt;&lt;br&gt;&lt;/b&gt;&lt;br&gt;&lt;/font&gt;" style="ellipse;whiteSpace=wrap;html=1;rounded=0;shadow=0;dashed=0;comic=0;fontFamily=Verdana;fontSize=22;fontColor=#0069D1;fillColor=#f5f5f5;strokeColor=#666666;" parent="1" vertex="1">
          <mxGeometry x="330" y="180" width="400" height="400" as="geometry" />
        </mxCell>
        <mxCell id="45236fa5f4b8e91a-1" value="&lt;font style=&quot;font-size: 30px&quot; color=&quot;#ff0000&quot;&gt;Stacks&lt;/font&gt;&lt;br&gt;&lt;font color=&quot;#808080&quot; style=&quot;font-size: 15px&quot;&gt;childchain (PoX)&lt;/font&gt;&lt;br&gt;&lt;sup&gt;&lt;font color=&quot;#000000&quot; style=&quot;font-size: 18px&quot;&gt;(&lt;/font&gt;&lt;font style=&quot;font-size: 18px&quot; color=&quot;#ff0000&quot;&gt;PBCTech&lt;/font&gt;&lt;font color=&quot;#000000&quot; style=&quot;font-size: 18px&quot;&gt;)&lt;/font&gt;&lt;/sup&gt;" style="ellipse;whiteSpace=wrap;html=1;rounded=0;shadow=0;dashed=0;comic=0;fontFamily=Verdana;fontSize=22;fontColor=#0069D1;fillColor=#f5f5f5;strokeColor=#666666;" parent="1" vertex="1">
          <mxGeometry x="430" y="-10" width="240" height="230" as="geometry" />
        </mxCell>
        <mxCell id="45236fa5f4b8e91a-2" value="&lt;font color=&quot;#ff0000&quot;&gt;Algorand&lt;/font&gt;&lt;br&gt;&lt;font color=&quot;#808080&quot; style=&quot;font-size: 15px&quot;&gt;PoS chain&lt;/font&gt;" style="ellipse;whiteSpace=wrap;html=1;rounded=0;shadow=0;dashed=0;comic=0;fontFamily=Verdana;fontSize=22;fontColor=#0069D1;fillColor=#f5f5f5;strokeColor=#666666;" parent="1" vertex="1">
          <mxGeometry x="450" y="560" width="160" height="160" as="geometry" />
        </mxCell>
        <mxCell id="45236fa5f4b8e91a-3" value="&lt;font color=&quot;#ff0000&quot;&gt;OtherPoX&lt;/font&gt;&lt;br&gt;&lt;font style=&quot;font-size: 15px&quot; color=&quot;#808080&quot;&gt;childchain&lt;/font&gt;" style="ellipse;whiteSpace=wrap;html=1;rounded=0;shadow=0;dashed=0;comic=0;fontFamily=Verdana;fontSize=22;fontColor=#0069D1;fillColor=#f5f5f5;strokeColor=#666666;" parent="1" vertex="1">
          <mxGeometry x="700" y="330" width="130" height="120" as="geometry" />
        </mxCell>
        <mxCell id="45236fa5f4b8e91a-4" value="&lt;font style=&quot;font-size: 30px&quot; color=&quot;#ff0000&quot;&gt;RSK&lt;/font&gt;&lt;br&gt;&lt;font style=&quot;font-size: 15px&quot; color=&quot;#808080&quot;&gt;bitcoin sidechain&lt;/font&gt;&lt;br&gt;&lt;font color=&quot;#000000&quot; style=&quot;font-size: 18px&quot;&gt;(RSK)&lt;/font&gt;" style="ellipse;whiteSpace=wrap;html=1;rounded=0;shadow=0;dashed=0;comic=0;fontFamily=Verdana;fontSize=22;fontColor=#0069D1;fillColor=#f5f5f5;strokeColor=#666666;" parent="1" vertex="1">
          <mxGeometry x="190" y="300" width="160" height="160" as="geometry" />
        </mxCell>
        <mxCell id="45236fa5f4b8e91a-5" value="&lt;font style=&quot;font-size: 20px&quot; color=&quot;#ff0000&quot;&gt;Elements/Liquid&lt;/font&gt;&lt;br&gt;&lt;font color=&quot;#808080&quot; style=&quot;font-size: 15px&quot;&gt;sidechain&lt;/font&gt;&lt;br&gt;&lt;sup&gt;&lt;font color=&quot;#000000&quot; style=&quot;font-size: 18px&quot;&gt;(Blockstream)&lt;/font&gt;&lt;/sup&gt;" style="ellipse;whiteSpace=wrap;html=1;rounded=0;shadow=0;dashed=0;comic=0;fontFamily=Verdana;fontSize=22;fontColor=#0069D1;fillColor=#f5f5f5;strokeColor=#666666;" parent="1" vertex="1">
          <mxGeometry x="280" y="130" width="160" height="160" as="geometry" />
        </mxCell>
        <mxCell id="45236fa5f4b8e91a-6" value="&lt;font style=&quot;font-size: 30px&quot; color=&quot;#ff0000&quot;&gt;Lightning&lt;/font&gt;&lt;br&gt;&lt;font color=&quot;#808080&quot; style=&quot;font-size: 15px&quot;&gt;bitcoin Tx network&lt;/font&gt;&lt;br&gt;&lt;font color=&quot;#000000&quot; style=&quot;font-size: 18px&quot;&gt;(4 projects)&lt;/font&gt;" style="ellipse;whiteSpace=wrap;html=1;rounded=0;shadow=0;dashed=0;comic=0;fontFamily=Verdana;fontSize=22;fontColor=#0069D1;fillColor=#f5f5f5;strokeColor=#666666;" parent="1" vertex="1">
          <mxGeometry x="630" y="160" width="160" height="160" as="geometry" />
        </mxCell>
        <mxCell id="45236fa5f4b8e91a-7" value="&lt;font style=&quot;font-size: 30px&quot; color=&quot;#ff0000&quot;&gt;RGB&lt;/font&gt;&lt;br&gt;&lt;font style=&quot;font-size: 15px&quot; color=&quot;#808080&quot;&gt;Lightning Network&lt;/font&gt;" style="ellipse;whiteSpace=wrap;html=1;rounded=0;shadow=0;dashed=0;comic=0;fontFamily=Verdana;fontSize=22;fontColor=#0069D1;fillColor=#f5f5f5;strokeColor=#666666;" parent="1" vertex="1">
          <mxGeometry x="630" y="480" width="160" height="160" as="geometry" />
        </mxCell>
        <mxCell id="45236fa5f4b8e91a-8" value="&lt;font color=&quot;#ff0000&quot;&gt;TimeStamping&lt;/font&gt;&lt;br&gt;&lt;font color=&quot;#808080&quot; style=&quot;font-size: 15px&quot;&gt;bitcoin service&lt;/font&gt;&lt;br&gt;&lt;font color=&quot;#000000&quot; style=&quot;font-size: 18px&quot;&gt;FOSS&lt;/font&gt;" style="ellipse;whiteSpace=wrap;html=1;rounded=0;shadow=0;dashed=0;comic=0;fontFamily=Verdana;fontSize=22;fontColor=#0069D1;fillColor=#f5f5f5;strokeColor=#666666;" parent="1" vertex="1">
          <mxGeometry x="270" y="480" width="160" height="160" as="geometry" />
        </mxCell>
        <mxCell id="lZ3ra_9fjDl4-H9-Oguv-4" value="&lt;font color=&quot;#009900&quot; size=&quot;1&quot;&gt;&lt;b style=&quot;font-size: 20px&quot;&gt;STX&lt;/b&gt;&lt;/font&gt;" style="text;html=1;strokeColor=none;fillColor=none;align=center;verticalAlign=middle;whiteSpace=wrap;rounded=0;" parent="1" vertex="1">
          <mxGeometry x="530" y="210" width="40" height="20" as="geometry" />
        </mxCell>
        <mxCell id="lZ3ra_9fjDl4-H9-Oguv-5" value="&lt;font color=&quot;#009900&quot; size=&quot;1&quot;&gt;&lt;b style=&quot;font-size: 20px&quot;&gt;LBTC&lt;/b&gt;&lt;/font&gt;" style="text;html=1;strokeColor=none;fillColor=none;align=center;verticalAlign=middle;whiteSpace=wrap;rounded=0;" parent="1" vertex="1">
          <mxGeometry x="390" y="260" width="40" height="20" as="geometry" />
        </mxCell>
        <mxCell id="lZ3ra_9fjDl4-H9-Oguv-6" value="&lt;font color=&quot;#009900&quot; size=&quot;1&quot;&gt;&lt;b style=&quot;font-size: 20px&quot;&gt;RBTC&lt;/b&gt;&lt;/font&gt;" style="text;html=1;strokeColor=none;fillColor=none;align=center;verticalAlign=middle;whiteSpace=wrap;rounded=0;" parent="1" vertex="1">
          <mxGeometry x="320" y="400" width="40" height="20" as="geometry" />
        </mxCell>
        <mxCell id="lZ3ra_9fjDl4-H9-Oguv-9" value="&lt;font color=&quot;#009900&quot; size=&quot;1&quot;&gt;&lt;b style=&quot;font-size: 20px&quot;&gt;BTC&lt;/b&gt;&lt;/font&gt;" style="text;html=1;strokeColor=none;fillColor=none;align=center;verticalAlign=middle;whiteSpace=wrap;rounded=0;" parent="1" vertex="1">
          <mxGeometry x="640" y="290" width="40" height="20" as="geometry" />
        </mxCell>
        <mxCell id="lZ3ra_9fjDl4-H9-Oguv-10" value="&lt;span style=&quot;color: rgb(0 , 0 , 0) ; font-family: &amp;#34;helvetica&amp;#34; ; font-style: normal ; font-weight: 400 ; letter-spacing: normal ; text-align: center ; text-indent: 0px ; text-transform: none ; word-spacing: 0px ; background-color: rgb(248 , 249 , 250) ; font-size: 14px&quot;&gt;&lt;b&gt;&lt;font color=&quot;#009900&quot;&gt;Truth&amp;amp;Value Interchange&lt;/font&gt;&lt;/b&gt;&lt;/span&gt;&lt;font style=&quot;font-family: &amp;#34;helvetica&amp;#34; ; font-size: 12px ; font-style: normal ; font-weight: 400 ; letter-spacing: normal ; text-align: center ; text-indent: 0px ; text-transform: none ; word-spacing: 0px ; background-color: rgb(248 , 249 , 250)&quot;&gt;&lt;br&gt;&lt;u&gt;&lt;font color=&quot;#ff0000&quot;&gt;Cooperative API/Services?&lt;/font&gt;&lt;/u&gt;&lt;/font&gt;&lt;br style=&quot;color: rgb(0 , 0 , 0) ; font-family: &amp;#34;helvetica&amp;#34; ; font-size: 12px ; font-style: normal ; font-weight: 400 ; letter-spacing: normal ; text-align: center ; text-indent: 0px ; text-transform: none ; word-spacing: 0px ; background-color: rgb(248 , 249 , 250)&quot;&gt;&lt;span style=&quot;color: rgb(0 , 0 , 0) ; font-family: &amp;#34;helvetica&amp;#34; ; font-size: 12px ; font-style: normal ; font-weight: 400 ; letter-spacing: normal ; text-align: center ; text-indent: 0px ; text-transform: none ; word-spacing: 0px ; background-color: rgb(248 , 249 , 250) ; display: inline ; float: none&quot;&gt;on and off chain&lt;/span&gt;&lt;br style=&quot;color: rgb(0 , 0 , 0) ; font-family: &amp;#34;helvetica&amp;#34; ; font-size: 12px ; font-style: normal ; font-weight: 400 ; letter-spacing: normal ; text-align: center ; text-indent: 0px ; text-transform: none ; word-spacing: 0px ; background-color: rgb(248 , 249 , 250)&quot;&gt;&lt;font color=&quot;#808080&quot; style=&quot;font-family: &amp;#34;helvetica&amp;#34; ; font-size: 12px ; font-style: normal ; font-weight: 400 ; letter-spacing: normal ; text-align: center ; text-indent: 0px ; text-transform: none ; word-spacing: 0px ; background-color: rgb(248 , 249 , 250)&quot;&gt;[ Data, Tokens, Auth/DID, etc. ]&lt;/font&gt;" style="rounded=1;whiteSpace=wrap;html=1;" parent="1" vertex="1">
          <mxGeometry x="440" y="420" width="190" height="90" as="geometry" />
        </mxCell>
        <mxCell id="lZ3ra_9fjDl4-H9-Oguv-12" value="&lt;font color=&quot;#009900&quot;&gt;&lt;span style=&quot;font-size: 20px&quot;&gt;&lt;b&gt;ALGO&lt;/b&gt;&lt;/span&gt;&lt;/font&gt;" style="text;html=1;strokeColor=none;fillColor=none;align=center;verticalAlign=middle;whiteSpace=wrap;rounded=0;" parent="1" vertex="1">
          <mxGeometry x="510" y="550" width="40" height="20" as="geometry" />
        </mxCell>
        <mxCell id="lZ3ra_9fjDl4-H9-Oguv-13" value="&lt;font style=&quot;font-size: 28px&quot;&gt;&lt;font color=&quot;#0000ff&quot;&gt;Digital Asset Ownership Network&lt;/font&gt; &lt;br&gt;cooperative&lt;br&gt;&lt;font color=&quot;#ff0000&quot;&gt;middle-ware API for multi-chain apps&lt;/font&gt;&lt;br&gt;&lt;/font&gt;" style="text;html=1;strokeColor=none;fillColor=none;align=center;verticalAlign=middle;whiteSpace=wrap;rounded=0;" parent="1" vertex="1">
          <mxGeometry x="700" width="500" height="120" as="geometry" />
        </mxCell>
        <mxCell id="lZ3ra_9fjDl4-H9-Oguv-14" value="&lt;font color=&quot;#009900&quot; size=&quot;1&quot;&gt;&lt;b style=&quot;font-size: 20px&quot;&gt;BTC&lt;/b&gt;&lt;/font&gt;" style="text;html=1;strokeColor=none;fillColor=none;align=center;verticalAlign=middle;whiteSpace=wrap;rounded=0;" parent="1" vertex="1">
          <mxGeometry x="640" y="500" width="40" height="20" as="geometry" />
        </mxCell>
        <mxCell id="1H9yyPW_hjN4RGJbeoG5-1" value="OWN network participating projects are focused on user-owned digital rights.&lt;br&gt;&lt;br&gt;platform: &lt;font color=&quot;#ff0000&quot;&gt;&lt;b&gt;Stacks&lt;/b&gt;&lt;/font&gt; - one of various &lt;u&gt;&lt;font color=&quot;#0000ff&quot;&gt;OWN stacks&lt;/font&gt;&lt;/u&gt;&lt;br&gt;&lt;div&gt;chain: &lt;font color=&quot;#ff0000&quot;&gt;&lt;b&gt;Stacks&lt;/b&gt;&lt;/font&gt; (one of varioius&amp;nbsp;&lt;u&gt;&lt;font color=&quot;#0000ff&quot;&gt;OWN chains&lt;/font&gt;&lt;/u&gt;)&lt;br&gt;token: &lt;font color=&quot;#ff0000&quot;&gt;STX&lt;/font&gt; and &lt;font color=&quot;#009900&quot;&gt;others&lt;/font&gt;&amp;nbsp;&lt;br&gt;Identity: &lt;font color=&quot;#ff0000&quot;&gt;&lt;b&gt;Stacks ID&lt;/b&gt;&lt;/font&gt; or cooperative &lt;font color=&quot;#0000ff&quot;&gt;&lt;u&gt;OWN ID&lt;/u&gt;&#39;s&lt;/font&gt;&lt;br&gt;storage: &lt;font color=&quot;#ff0000&quot;&gt;Gaia&lt;/font&gt; or &lt;u&gt;&lt;font color=&quot;#0000ff&quot;&gt;OWN hub&lt;/font&gt;&lt;/u&gt;&lt;/div&gt;" style="text;html=1;strokeColor=none;fillColor=none;align=left;verticalAlign=middle;whiteSpace=wrap;rounded=0;" vertex="1" parent="1">
          <mxGeometry x="930" y="190" width="390" height="310" as="geometry" />
        </mxCell>
        <mxCell id="1H9yyPW_hjN4RGJbeoG5-2" value="&lt;font color=&quot;#009900&quot; size=&quot;1&quot;&gt;&lt;b style=&quot;font-size: 20px&quot;&gt;PXT&lt;/b&gt;&lt;/font&gt;" style="text;html=1;strokeColor=none;fillColor=none;align=center;verticalAlign=middle;whiteSpace=wrap;rounded=0;" vertex="1" parent="1">
          <mxGeometry x="680" y="380" width="40" height="20" as="geometry" />
        </mxCell>
      </root>
    </mxGraphModel>
  </diagram>
</mxfile>
